<svg data-v-fde0c5aa="" xmlns="http://www.w3.org/2000/svg" viewBox="0 0 300 300" class="font"><!----><defs data-v-fde0c5aa=""><!----></defs><rect data-v-fde0c5aa="" fill="#FBF3EF" x="0" y="0" width="300px" height="300px" class="logo-background-square"></rect><defs data-v-fde0c5aa=""><linearGradient data-v-fde0c5aa="" gradientTransform="rotate(25)" id="de84cd70-2cc5-4827-939b-37e33803bb89" x1="0%" y1="0%" x2="100%" y2="0%"><stop data-v-fde0c5aa="" offset="0%" stop-color="#A92580" stop-opacity="1"></stop><stop data-v-fde0c5aa="" offset="100%" stop-color="#F7BC00" stop-opacity="1"></stop></linearGradient></defs><g data-v-fde0c5aa="" id="d4ae4672-90c2-4f5a-9d4f-2dd912a70a32" fill="url(#de84cd70-2cc5-4827-939b-37e33803bb89)" transform="matrix(4.658056259155273,0,0,4.658056259155273,37.67097181735879,97.92293063575084)"><path d="M7.04 10.37L7.04 10.37L7.04 10.37Q7.38 10.37 7.38 10.70L7.38 10.70L7.38 10.70Q7.38 10.89 6.92 11.35L6.92 11.35L6.92 11.35Q6.47 11.82 5.81 12.31L5.81 12.31L5.81 12.31Q5.15 12.81 4.26 13.18L4.26 13.18L4.26 13.18Q3.36 13.55 2.51 13.55L2.51 13.55L2.51 13.55Q1.65 13.55 1.08 12.90L1.08 12.90L1.08 12.90Q0.50 12.25 0.50 10.84L0.50 10.84L0.50 10.84Q0.50 9.42 1.09 8.22L1.09 8.22L1.09 8.22Q1.68 7.03 2.59 6.24L2.59 6.24L2.59 6.24Q3.50 5.45 4.62 4.89L4.62 4.89L4.62 4.89Q6.76 3.81 8.79 3.81L8.79 3.81L8.79 3.81Q11.23 3.81 11.23 5.08L11.23 5.08L11.23 5.08Q11.23 5.88 10.39 6.79L10.39 6.79L10.39 6.79Q9.55 7.70 9.02 7.70L9.02 7.70L9.02 7.70Q8.65 7.70 8.65 7.49L8.65 7.49L8.65 7.49Q8.65 7.24 8.85 7.01L8.85 7.01L8.85 7.01Q9.53 6.33 9.68 6.13L9.68 6.13L9.68 6.13Q9.83 5.94 9.83 5.85L9.83 5.85L9.83 5.85Q9.83 5.77 9.67 5.77L9.67 5.77L9.67 5.77Q9.17 5.77 8.12 6.47L8.12 6.47L8.12 6.47Q7.07 7.17 6.02 8.15L6.02 8.15L6.02 8.15Q4.97 9.13 4.18 10.28L4.18 10.28L4.18 10.28Q3.39 11.42 3.39 12.21L3.39 12.21L3.39 12.21Q3.39 12.47 3.68 12.47L3.68 12.47L3.68 12.47Q4.12 12.47 5.52 11.42L5.52 11.42L5.52 11.42Q6.93 10.37 7.04 10.37ZM13.88 12.77L13.88 12.77L13.88 12.77Q13.38 13.15 12.69 13.50L12.69 13.50L12.69 13.50Q12.00 13.85 11.53 13.85L11.53 13.85L11.53 13.85Q11.06 13.85 10.78 13.57L10.78 13.57L10.78 13.57Q10.50 13.29 10.50 12.88L10.50 12.88L10.50 12.88Q10.50 12.21 11.47 11.07L11.47 11.07L11.47 11.07Q11.55 10.99 11.55 10.94L11.55 10.94L11.55 10.94Q11.55 10.89 11.52 10.89L11.52 10.89L11.52 10.89Q11.49 10.89 11.32 10.96L11.32 10.96L11.32 10.96Q11.14 11.02 10.36 11.60L10.36 11.60L10.36 11.60Q9.58 12.18 8.83 12.83L8.83 12.83L8.83 12.83Q8.09 13.48 7.78 13.48L7.78 13.48L7.78 13.48Q7.46 13.48 7.31 13.22L7.31 13.22L7.31 13.22Q7.17 12.95 7.17 12.61L7.17 12.61L7.17 12.61Q7.17 11.58 8.79 9.46L8.79 9.46L8.79 9.46Q10.40 7.35 12.17 5.69L12.17 5.69L12.17 5.69Q13.93 4.03 14.42 4.03L14.42 4.03L14.42 4.03Q14.66 4.03 14.88 4.23L14.88 4.23L14.88 4.23Q15.09 4.44 15.09 4.78L15.09 4.78L15.09 4.78Q15.09 5.12 14.25 6.30L14.25 6.30L14.25 6.30Q13.41 7.48 12.38 8.78L12.38 8.78L12.38 8.78Q11.07 10.40 11.07 10.54L11.07 10.54L11.07 10.54Q11.07 10.60 11.13 10.60L11.13 10.60L11.13 10.60Q11.19 10.60 11.61 10.37L11.61 10.37L11.61 10.37Q12.03 10.14 12.52 9.93L12.52 9.93L12.52 9.93Q13.01 9.73 13.20 9.70L13.20 9.70L13.20 9.70Q13.38 9.66 13.64 9.66L13.64 9.66L13.64 9.66Q13.90 9.66 14.16 9.77L14.16 9.77L14.16 9.77Q14.42 9.88 14.42 10.10L14.42 10.10L14.42 10.10Q14.42 10.32 13.41 11.49L13.41 11.49L13.41 11.49Q12.39 12.66 12.39 12.82L12.39 12.82L12.39 12.82Q12.39 12.98 12.53 12.98L12.53 12.98L12.53 12.98Q12.82 12.98 13.68 12.36L13.68 12.36L13.68 12.36Q14 12.14 14.06 12.11L14.06 12.11L14.06 12.11Q14.11 12.08 14.18 12.08L14.18 12.08L14.18 12.08Q14.38 12.08 14.38 12.28L14.38 12.28L14.38 12.28Q14.38 12.39 13.88 12.77ZM13.72 13.08L13.72 13.08Q13.72 13.38 13.93 13.59L13.93 13.59L13.93 13.59Q14.14 13.79 14.48 13.79L14.48 13.79L14.48 13.79Q14.81 13.79 15.62 12.98L15.62 12.98L15.62 12.98Q16.44 12.17 17.07 11.28L17.07 11.28L17.07 11.28Q17.70 10.40 17.70 10.16L17.70 10.16L17.70 10.16Q17.70 9.42 17.07 9.42L17.07 9.42L17.07 9.42Q16.06 9.60 14.89 10.85L14.89 10.85L14.89 10.85Q13.72 12.10 13.72 13.08L13.72 13.08ZM17.95 8.97L17.95 8.97L17.95 8.97Q17.71 8.97 17.57 8.81L17.57 8.81L17.57 8.81Q17.43 8.64 17.40 8.47L17.40 8.47L17.39 8.32L17.39 8.32Q17.46 7.64 17.99 7.29L17.99 7.29L17.99 7.29Q18.52 6.94 18.91 6.94L18.91 6.94L18.91 6.94Q19.49 6.94 19.49 7.52L19.49 7.52L19.49 7.52Q19.49 7.88 19.05 8.39L19.05 8.39L19.05 8.39Q18.62 8.90 17.95 8.97ZM22.48 12.80L22.48 12.80L22.92 12.63L22.92 12.63Q23.11 12.63 23.11 12.78L23.11 12.78L23.11 12.78Q23.11 13.15 22.52 13.47L22.52 13.47L22.52 13.47Q21.92 13.80 21.38 13.80L21.38 13.80L21.38 13.80Q20.85 13.80 20.55 13.57L20.55 13.57L20.55 13.57Q20.26 13.34 20.26 12.87L20.26 12.87L20.26 12.87Q20.26 12.39 20.80 11.69L20.80 11.69L20.80 11.69Q20.87 11.62 20.87 11.57L20.87 11.57L20.87 11.57Q20.87 11.52 20.82 11.52L20.82 11.52L20.82 11.52Q20.76 11.52 20.72 11.55L20.72 11.55L20.72 11.55Q20.68 11.58 20.12 11.93L20.12 11.93L20.12 11.93Q18.77 12.78 18.20 13.12L18.20 13.12L18.20 13.12Q17.96 13.24 17.75 13.24L17.75 13.24L17.75 13.24Q17.54 13.24 17.29 12.98L17.29 12.98L17.29 12.98Q17.04 12.71 17.04 12.45L17.04 12.45L17.04 12.45Q17.04 11.89 18.62 10.39L18.62 10.39L18.62 10.39Q20.20 8.90 20.76 8.90L20.76 8.90L20.76 8.90Q20.97 8.93 21.13 9.14L21.13 9.14L21.13 9.14Q21.28 9.35 21.28 9.64L21.28 9.64L21.28 9.64Q21.28 9.93 21.07 10.26L21.07 10.26L21.07 10.26Q20.76 10.75 20.57 10.94L20.57 10.94L20.57 10.94Q20.38 11.13 20.38 11.18L20.38 11.18L20.38 11.18Q20.38 11.23 20.43 11.23L20.43 11.23L20.43 11.23Q20.47 11.23 20.54 11.18L20.54 11.18L20.54 11.18Q20.62 11.13 21.88 10.31L21.88 10.31L21.88 10.31Q23.13 9.49 23.28 9.40L23.28 9.40L23.28 9.40Q23.44 9.31 23.62 9.31L23.62 9.31L23.62 9.31Q23.80 9.31 24.09 9.48L24.09 9.48L24.09 9.48Q24.39 9.66 24.39 9.95L24.39 9.95L24.39 9.95Q24.39 10.25 23.88 10.82L23.88 10.82L23.88 10.82Q23.37 11.40 22.85 11.93L22.85 11.93L22.85 11.93Q22.33 12.46 22.33 12.68L22.33 12.68L22.33 12.68Q22.33 12.80 22.48 12.80ZM23.30 13.08L23.30 13.08Q23.30 13.38 23.51 13.59L23.51 13.59L23.51 13.59Q23.72 13.79 24.05 13.79L24.05 13.79L24.05 13.79Q24.39 13.79 25.20 12.98L25.20 12.98L25.20 12.98Q26.01 12.17 26.64 11.28L26.64 11.28L26.64 11.28Q27.27 10.40 27.27 10.16L27.27 10.16L27.27 10.16Q27.27 9.42 26.64 9.42L26.64 9.42L26.64 9.42Q25.63 9.60 24.46 10.85L24.46 10.85L24.46 10.85Q23.30 12.10 23.30 13.08L23.30 13.08ZM27.52 8.97L27.52 8.97L27.52 8.97Q27.29 8.97 27.15 8.81L27.15 8.81L27.15 8.81Q27.01 8.64 26.98 8.47L26.98 8.47L26.96 8.32L26.96 8.32Q27.03 7.64 27.57 7.29L27.57 7.29L27.57 7.29Q28.10 6.94 28.49 6.94L28.49 6.94L28.49 6.94Q29.06 6.94 29.06 7.52L29.06 7.52L29.06 7.52Q29.06 7.88 28.63 8.39L28.63 8.39L28.63 8.39Q28.20 8.90 27.52 8.97ZM23.79 17.54L23.79 17.54L23.79 17.54Q23.79 16.87 24.45 15.62L24.45 15.62L24.45 15.62Q25.12 14.38 26.05 13.06L26.05 13.06L26.05 13.06Q28.07 10.29 29.55 8.55L29.55 8.55L30.21 7.78L30.21 7.78Q30.42 7.59 30.63 7.59L30.63 7.59L30.63 7.59Q30.84 7.59 30.94 7.74L30.94 7.74L30.94 7.74Q31.04 7.90 31.04 8.02L31.04 8.02L31.04 8.02Q31.04 8.13 30.88 8.54L30.88 8.54L30.88 8.54Q30.72 8.95 30.49 9.47L30.49 9.47L30.49 9.47Q30.27 10.00 30.25 10.04L30.25 10.04L30.25 10.04Q30.23 10.09 30.23 10.15L30.23 10.15L30.23 10.15Q30.23 10.21 30.32 10.21L30.32 10.21L30.32 10.21Q30.41 10.21 30.76 9.90L30.76 9.90L30.76 9.90Q31.84 8.97 32.38 8.97L32.38 8.97L32.38 8.97Q33.38 8.97 33.38 9.98L33.38 9.98L33.38 9.98Q33.31 10.50 32.75 11.33L32.75 11.33L32.75 11.33Q32.19 12.15 31.34 12.83L31.34 12.83L31.34 12.83Q30.49 13.51 29.78 13.51L29.78 13.51L29.78 13.51Q29.47 13.51 29.25 13.36L29.25 13.36L29.25 13.36Q29.02 13.20 28.91 13.05L28.91 13.05L28.91 13.05Q28.80 12.89 28.76 12.89L28.76 12.89L28.76 12.89Q28.73 12.89 28.68 12.96L28.68 12.96L28.68 12.96Q28.63 13.03 25.96 17.44L25.96 17.44L25.96 17.44Q25.26 18.55 24.58 18.55L24.58 18.55L24.58 18.55Q24.23 18.55 24.01 18.23L24.01 18.23L24.01 18.23Q23.79 17.92 23.79 17.54ZM31.71 9.93L31.71 9.93L31.71 9.93Q31.36 9.93 30.23 11.02L30.23 11.02L30.23 11.02Q29.11 12.11 29.11 12.39L29.11 12.39L29.11 12.39Q29.11 12.42 29.16 12.42L29.16 12.42L29.16 12.42Q29.69 12.42 30.76 11.42L30.76 11.42L30.76 11.42Q31.82 10.42 31.82 10.01L31.82 10.01L31.82 10.01Q31.82 9.93 31.71 9.93ZM36.55 12.87L36.55 12.87L36.55 12.87Q36.55 12.94 36.65 12.96L36.65 12.96L36.65 12.96Q36.75 12.96 37.33 12.56L37.33 12.56L37.33 12.56Q37.91 12.17 37.99 12.12L37.99 12.12L37.99 12.12Q38.07 12.08 38.14 12.08L38.14 12.08L38.14 12.08Q38.33 12.08 38.33 12.27L38.33 12.27L38.33 12.27Q38.33 12.46 37.34 13.10L37.34 13.10L37.34 13.10Q36.36 13.75 35.95 13.75L35.95 13.75L35.95 13.75Q35.78 13.75 35.59 13.61L35.59 13.61L35.59 13.61Q35.41 13.47 35.41 13.28L35.41 13.28L35.41 13.28Q35.41 13.09 35.50 12.87L35.50 12.87L35.50 12.87Q35.60 12.64 35.60 12.56L35.60 12.56L35.60 12.56Q35.60 12.49 35.56 12.49L35.56 12.49L35.56 12.49Q35.52 12.49 35.48 12.52L35.48 12.52L35.48 12.52Q34.12 13.54 33.47 13.54L33.47 13.54L33.47 13.54Q33.11 13.54 32.90 13.27L32.90 13.27L32.90 13.27Q32.69 13.01 32.65 12.74L32.65 12.74L32.62 12.47L32.62 12.47Q32.62 12.01 32.98 11.40L32.98 11.40L32.98 11.40Q33.33 10.79 33.91 10.24L33.91 10.24L33.91 10.24Q34.50 9.69 35.34 9.31L35.34 9.31L35.34 9.31Q36.19 8.93 37.07 8.93L37.07 8.93L37.07 8.93Q37.55 8.93 37.96 9.18L37.96 9.18L37.96 9.18Q38.37 9.44 38.37 9.77L38.37 9.77L38.37 9.77Q38.37 10.11 37.72 10.18L37.72 10.18L37.72 10.18Q37.23 10.29 36.10 10.98L36.10 10.98L36.10 10.98Q34.97 11.68 34.97 12.04L34.97 12.04L34.97 12.04Q34.97 12.19 35.13 12.19L35.13 12.19L35.13 12.19Q35.41 12.19 36.45 11.40L36.45 11.40L36.45 11.40Q37.49 10.60 37.70 10.60L37.70 10.60L37.70 10.60Q37.91 10.60 37.91 10.85L37.91 10.85L37.91 10.85Q37.91 11.03 37.78 11.19L37.78 11.19L37.78 11.19Q37.65 11.35 37.59 11.42L37.59 11.42L37.59 11.42Q37.48 11.56 37.02 12.05L37.02 12.05L37.02 12.05Q36.55 12.53 36.55 12.87ZM38.93 7.78L38.93 7.78L38.93 7.78Q38.93 7.56 40.14 7.38L40.14 7.38L40.14 7.38Q41.34 7.20 42.71 7.13L42.71 7.13L42.71 7.13Q43.86 6.09 44.79 5.36L44.79 5.36L45.09 5.11L45.09 5.11Q45.30 5.11 45.30 5.42L45.30 5.42L45.33 6.10L45.33 6.10Q45.29 6.26 44.74 7.07L44.74 7.07L45.43 7.07L45.43 7.07Q46.98 7.07 47.23 7.37L47.23 7.37L47.23 7.37Q47.47 7.67 47.47 7.85L47.47 7.85L47.47 7.85Q47.47 8.09 47.00 8.11L47.00 8.11L47.00 8.11Q46.52 8.12 44.02 8.12L44.02 8.12L44.02 8.12Q42.01 10.18 40.88 11.77L40.88 11.77L40.88 11.77Q40.45 12.36 40.12 12.82L40.12 12.82L40.12 12.82Q39.80 13.29 39.63 13.47L39.63 13.47L39.63 13.47Q39.45 13.66 39.30 13.66L39.30 13.66L39.30 13.66Q38.84 13.66 38.51 13.36L38.51 13.36L38.51 13.36Q38.19 13.05 38.19 12.60L38.19 12.60L38.19 12.60Q38.19 11.37 41.62 8.13L41.62 8.13L39.47 8.13L39.47 8.13Q38.93 8.13 38.93 7.78ZM45.91 12.87L45.91 12.87L45.91 12.87Q45.91 12.94 46.00 12.96L46.00 12.96L46.00 12.96Q46.10 12.96 46.68 12.56L46.68 12.56L46.68 12.56Q47.26 12.17 47.34 12.12L47.34 12.12L47.34 12.12Q47.42 12.08 47.49 12.08L47.49 12.08L47.49 12.08Q47.68 12.08 47.68 12.27L47.68 12.27L47.68 12.27Q47.68 12.46 46.70 13.10L46.70 13.10L46.70 13.10Q45.71 13.75 45.30 13.75L45.30 13.75L45.30 13.75Q45.14 13.75 44.95 13.61L44.95 13.61L44.95 13.61Q44.76 13.47 44.76 13.28L44.76 13.28L44.76 13.28Q44.76 13.09 44.86 12.87L44.86 12.87L44.86 12.87Q44.95 12.64 44.95 12.56L44.95 12.56L44.95 12.56Q44.95 12.49 44.91 12.49L44.91 12.49L44.91 12.49Q44.87 12.49 44.83 12.52L44.83 12.52L44.83 12.52Q43.47 13.54 42.83 13.54L42.83 13.54L42.83 13.54Q42.46 13.54 42.25 13.27L42.25 13.27L42.25 13.27Q42.04 13.01 42 12.74L42 12.74L41.97 12.47L41.97 12.47Q41.97 12.01 42.33 11.40L42.33 11.40L42.33 11.40Q42.69 10.79 43.27 10.24L43.27 10.24L43.27 10.24Q43.85 9.69 44.70 9.31L44.70 9.31L44.70 9.31Q45.54 8.93 46.42 8.93L46.42 8.93L46.42 8.93Q46.90 8.93 47.31 9.18L47.31 9.18L47.31 9.18Q47.73 9.44 47.73 9.77L47.73 9.77L47.73 9.77Q47.73 10.11 47.07 10.18L47.07 10.18L47.07 10.18Q46.58 10.29 45.45 10.98L45.45 10.98L45.45 10.98Q44.32 11.68 44.32 12.04L44.32 12.04L44.32 12.04Q44.32 12.19 44.48 12.19L44.48 12.19L44.48 12.19Q44.76 12.19 45.80 11.40L45.80 11.40L45.80 11.40Q46.84 10.60 47.05 10.60L47.05 10.60L47.05 10.60Q47.26 10.60 47.26 10.85L47.26 10.85L47.26 10.85Q47.26 11.03 47.13 11.19L47.13 11.19L47.13 11.19Q47.00 11.35 46.94 11.42L46.94 11.42L46.94 11.42Q46.83 11.56 46.37 12.05L46.37 12.05L46.37 12.05Q45.91 12.53 45.91 12.87Z"></path></g><!----><!----></svg>